<?xml version="1.0"?>
<svg version="1.1" xmlns="http://www.w3.org/2000/svg" width="210" height="50" style=""><path fill="#e31010" d="M27.441,37.342q0,2.673-3.0525,5.0655t-5.2965,2.3925q-1.485,0-2.1615-0.198t-1.5015-1.188q-0.561,0.462-1.518,2.3595t-0.957,3.2505q0,0.627,0.627,1.65q0.066,0.165-0.099,0.2805t-0.2475,0.1155t-0.1485-0.033q-1.386-0.759-1.386-2.9535t3.6465-7.59t5.0325-5.8575q0.33-0.066,0.429-0.066q0.561,0,0.561,1.221q0.33-0.33,1.353-0.627q1.254-0.33,1.782-0.33q1.188,0,2.0625,0.6765t0.8745,1.8315z M25.758,37.012q0-1.254-1.485-1.254t-2.706,0.627q-0.561,0.264-3.102,2.904t-2.541,3.399q0,0.594,0.9075,0.891t1.8315,0.297q1.815,0,4.455-2.0625t2.64-4.8015z M37.00011,31.6495q0.4455,0.3135,0.4455,0.7425t-0.4125,0.7425t-0.9075,0.3135t-0.9075-0.363t-0.4125-0.825q0-0.924,1.254-0.924q0.495,0,0.9405,0.3135z M30.08661,45.163q-1.683,0-1.683-2.178q0-1.782,1.947-4.9335t3.135-3.1845q0.33,0,0.7425,0.264t0.4125,0.528q-0.165,0.231-0.396,0.5115t-0.495,0.6105t-0.726,0.9405t-0.891,1.1715q-2.475,3.201-2.475,4.4055t0.825,1.2045q0.693,0,1.881-0.759q2.772-1.716,4.389-3.762q0.594-0.759,0.8085-0.759t0.2145,0.264t-0.759,1.056t-1.2045,1.254t-0.6105,0.6105t-0.6105,0.561t-0.6765,0.5775t-0.66,0.495t-0.759,0.4785t-0.759,0.3465q-0.693,0.297-1.65,0.297z M35.96622,48.628q1.584,1.98,2.739,1.98q1.881,0,4.059-3.003q1.584-2.211,3.102-5.577l1.254-3.036l-4.851,3.795q-2.244,1.749-3.597,1.749q-0.726,0-1.155-0.495t-0.429-1.122q0-1.419,2.442-4.6695t3.564-3.2505t1.122,0.759q0,0.297-2.9205,3.4155t-2.9205,4.2075q0,0.429,0.561,0.429q1.056,0,4.2405-2.475t4.8015-4.092q0.363-0.429,1.023-1.287q0.627-0.726,1.386-0.726t0.759,0.726q0,0.132-1.485,2.343t-1.551,2.343q-1.023,1.98-3.135,5.775q-3.201,5.148-6.402,5.148q-1.056,0-1.848-0.9075t-0.759-2.0295z M60.72183,44.998q-0.165,0.033-0.7095,0.033t-1.089-0.429t-0.5445-1.1055t0.2475-1.5015t0.3465-1.254q-3.795,4.422-5.94,4.422q-1.353,0-1.485-1.683l0-0.231q0-1.419,1.716-3.828q-0.957,0.858-1.947,1.98q-0.132,0.132-0.33,0.132q-0.132,0-0.132-0.165t0.297-0.561l4.554-5.346q0.858-0.99,1.749-0.99t0.891,0.594q0,0.231-0.198,0.429q-1.32,1.221-3.3165,4.059t-1.9965,4.191q0,0.594,0.396,0.594q1.386,0,4.026-2.739q0.924-0.924,3.432-4.0755t3.3-3.1515q1.188,0,1.188,0.924q0,0.33-1.386,1.914q-1.881,2.277-2.871,3.7125t-0.99,2.3265t0.495,0.891q0.231,0,0.528-0.132q2.277-0.99,5.445-4.62q0.198-0.231,0.396-0.231t0.198,0.2145t-0.231,0.4785q-1.419,1.65-3.333,3.3165t-2.706,1.8315z M82.73844,44.404q-2.244,0-2.244-2.079q0-1.188,1.056-3.2505t2.211-3.4815q-2.046,0.99-4.719,3.5805t-3.729,5.4285q-0.165,0.264-0.561,0.264q-0.792,0-0.792-0.891q0.33-1.815,1.485-4.158q0.363-0.759,2.145-4.422q-2.574,1.683-4.3725,3.6135t-3.333,3.8775t-1.7325,1.947q-0.429,0-0.7425-0.396t-0.3135-0.792q0-0.594,1.716-4.356l-1.98,2.079q-0.726,0.726-0.9075,0.726t-0.1815-0.2145t0.264-0.4785q1.221-1.221,2.178-2.442t3.168-4.356q0.363-0.495,1.023-0.495t0.66,0.627q0,0.231-1.749,3.2175t-1.947,3.7455q1.353-1.485,4.059-3.993q4.059-3.762,5.346-3.762q0.396,0,0.726,0.231t0.33,0.5115t-1.287,2.4915q-1.254,2.277-1.386,2.706q3.663-3.069,3.663-3.102q3.102-2.409,4.455-2.409q0.396,0,0.7425,0.2475t0.3465,0.5775q0,0.066-2.145,2.7885t-2.409,4.4715q-0.066,0.594,0.231,0.891t1.0725,0.297t2.277-1.0725t3.0525-2.8875q0.594-0.66,0.8085-0.66t0.2145,0.165q0,0.231-0.297,0.528q-1.617,1.947-3.4815,3.3165t-2.9205,1.3695z M97.34655,31.6495q0.4455,0.3135,0.4455,0.7425t-0.4125,0.7425t-0.9075,0.3135t-0.9075-0.363t-0.4125-0.825q0-0.924,1.254-0.924q0.495,0,0.9405,0.3135z M90.43305,45.163q-1.683,0-1.683-2.178q0-1.782,1.947-4.9335t3.135-3.1845q0.33,0,0.7425,0.264t0.4125,0.528q-0.165,0.231-0.396,0.5115t-0.495,0.6105t-0.726,0.9405t-0.891,1.1715q-2.475,3.201-2.475,4.4055t0.825,1.2045q0.693,0,1.881-0.759q2.772-1.716,4.389-3.762q0.594-0.759,0.8085-0.759t0.2145,0.264t-0.759,1.056t-1.2045,1.254t-0.6105,0.6105t-0.6105,0.561t-0.6765,0.5775t-0.66,0.495t-0.759,0.4785t-0.759,0.3465q-0.693,0.297-1.65,0.297z M112.91727,45.196q-2.607,0-4.422-4.125q-0.462,0.693-2.079,3.894q-1.188-0.462-1.188-1.254q0-1.419,4.257-7.788t5.841-7.491q0.132-0.099,0.528-0.099q1.023,0,1.023,0.528q0,0.264-2.2935,2.97t-2.5575,3.267q3.003-1.551,4.785-1.551q1.023,0,1.749,0.825q0.693,0.693,0.693,1.419l0,0.198q-0.264,1.881-2.64,3.102q-1.914,1.023-3.564,1.023t-2.31-0.429q-0.198-0.033-0.3135,0.099t-0.0495,0.33q0.924,4.092,3.069,4.092q1.122,0,2.8875-1.254t3.6795-3.531q0.231-0.231,0.4125-0.231t0.1815,0.1815t-0.231,0.5115q-1.782,2.178-3.366,3.432q-2.409,1.881-4.092,1.881z M117.66927,35.098q0-0.264-0.297-0.528t-0.627-0.264q-1.782,0-4.2735,1.485t-3.0525,3.366q0.297,0,1.584,0.099q1.485,0,3.894-1.221q2.772-1.386,2.772-2.937z M131.56788,34.933l0.462-0.099q0.363,0,0.693,0.297t0.33,0.462t-2.046,3.1845t-2.046,4.2075q0,0.099,0.033,0.198q0.165,0.759,0.726,0.759q1.716,0,6.27-5.676q0.099-0.132,0.231-0.132t0.132,0.2475t-0.297,0.6435q-4.224,5.643-6.435,5.643q-0.297,0-0.561-0.099q-1.452-0.561-1.452-2.178q0-0.561,0.132-1.122l-2.046,1.98q-1.947,1.716-2.8215,1.716t-1.6665-0.561q-0.891-0.66-0.891-1.749q0-2.409,3.366-5.7585t6.171-3.3495q1.089,0,1.452,0.759q0.099,0.264,0.165,0.4455t0.099,0.1815z M121.70088,43.051q0,1.188,0.825,1.188q1.914,0,5.214-4.191l3.498-4.818q-0.264-0.462-0.858-0.462q-2.013,0-5.346,3.1185t-3.333,5.1645z M144.60849,31.831q0.99,0,1.683,0.66t0.693,1.848q0,2.607-4.323,6.534q-3.663,3.3-5.907,4.026q-0.363,0-0.957-0.396t-0.594-0.726q0-0.726,1.584-4.917t2.178-4.686q0.132-0.132,0.429-0.132t0.627,0.3135t0.363,0.7425q0,0.033-1.6335,3.828t-1.5345,4.521q1.419-0.429,5.0655-3.465t3.6465-5.445q0-1.452-1.452-2.112q-0.231-0.099-0.231-0.297q0-0.297,0.363-0.297z M155.1576,31.6495q0.4455,0.3135,0.4455,0.7425t-0.4125,0.7425t-0.9075,0.3135t-0.9075-0.363t-0.4125-0.825q0-0.924,1.254-0.924q0.495,0,0.9405,0.3135z M148.2441,45.163q-1.683,0-1.683-2.178q0-1.782,1.947-4.9335t3.135-3.1845q0.33,0,0.7425,0.264t0.4125,0.528q-0.165,0.231-0.396,0.5115t-0.495,0.6105t-0.726,0.9405t-0.891,1.1715q-2.475,3.201-2.475,4.4055t0.825,1.2045q0.693,0,1.881-0.759q2.772-1.716,4.389-3.762q0.594-0.759,0.8085-0.759t0.2145,0.264t-0.759,1.056t-1.2045,1.254t-0.6105,0.6105t-0.6105,0.561t-0.6765,0.5775t-0.66,0.495t-0.759,0.4785t-0.759,0.3465q-0.693,0.297-1.65,0.297z M161.28471,34.372q0.891,0,0.891,0.693q0,0.198-0.099,0.396q-2.97,4.125-3.564,6.237q7.689-7.689,9.339-7.689q0.165-0.033,0.297-0.033q0.924,0,0.924,0.825q0,0.165-0.066,0.33t-1.32,1.782q-1.452,1.716-2.4585,3.3t-1.0065,2.64t0.462,1.056q1.452,0,5.049-3.993q0.066-0.066,0.231-0.297q0.495-0.594,0.594-0.594t0.099,0.33t-0.462,0.858q-4.092,4.653-5.808,4.653q-1.617,0-1.617-1.782t1.32-4.092l2.112-3.432q-2.244,1.65-3.993,3.6135t-3.1845,3.8115t-1.6665,1.848q-0.495,0-0.7755-0.4125t-0.2805-1.023t0.429-1.6335t1.089-2.475l-1.98,2.079q-0.726,0.726-0.9075,0.726t-0.1815-0.2145t0.264-0.4785q1.221-1.221,2.112-2.343q0.858-1.122,3.531-4.29q0.297-0.396,0.627-0.396z M181.55232,34.801q3.696-6.006,5.148-6.006q0.231,0,0.6435,0.1485t0.4125,0.4455q0,0.165-0.165,0.429q-2.64,3.234-3.927,4.851q-3.894,4.917-4.29,7.062q-0.099,0.462-0.099,0.924q0,1.485,1.221,1.485q2.442,0,6.369-4.521q0.33-0.33,0.561-0.3795t0.231,0.1155t-0.198,0.396q-3.828,4.587-6.798,5.115q-0.165,0.033-0.462,0.033q-1.023,0-1.5345-0.7095t-0.5115-1.5345q0-0.924,0.363-2.046l-2.673,2.673q-1.815,1.683-2.8545,1.683t-1.7325-0.561q-0.825-0.627-0.825-1.749q0-2.409,3.366-5.7585t6.171-3.3495q0.924,0,1.287,0.495q0.132,0.165,0.297,0.759z M171.81732,43.051q0,1.188,0.825,1.188q1.419,0,4.719-3.894q0.594-0.693,3.96-5.181q-0.231-0.396-0.792-0.396q-2.046,0-5.379,3.1185t-3.333,5.1645z M185.74893,48.628q1.584,1.98,2.739,1.98q1.881,0,4.059-3.003q1.584-2.211,3.102-5.577l1.254-3.036l-4.851,3.795q-2.244,1.749-3.597,1.749q-0.726,0-1.155-0.495t-0.429-1.122q0-1.419,2.442-4.6695t3.564-3.2505t1.122,0.759q0,0.297-2.9205,3.4155t-2.9205,4.2075q0,0.429,0.561,0.429q1.056,0,4.2405-2.475t4.8015-4.092q0.363-0.429,1.023-1.287q0.627-0.726,1.386-0.726t0.759,0.726q0,0.132-1.485,2.343t-1.551,2.343q-1.023,1.98-3.135,5.775q-3.201,5.148-6.402,5.148q-1.056,0-1.848-0.9075t-0.759-2.0295z M212.22054,34.933l0.462-0.099q0.363,0,0.693,0.297t0.33,0.462t-2.046,3.1845t-2.046,4.2075q0,0.099,0.033,0.198q0.165,0.759,0.726,0.759q1.716,0,6.27-5.676q0.099-0.132,0.231-0.132t0.132,0.2475t-0.297,0.6435q-4.224,5.643-6.435,5.643q-0.297,0-0.561-0.099q-1.452-0.561-1.452-2.178q0-0.561,0.132-1.122l-2.046,1.98q-1.947,1.716-2.8215,1.716t-1.6665-0.561q-0.891-0.66-0.891-1.749q0-2.409,3.366-5.7585t6.171-3.3495q1.089,0,1.452,0.759q0.099,0.264,0.165,0.4455t0.099,0.1815z M202.35354,43.051q0,1.188,0.825,1.188q1.914,0,5.214-4.191l3.498-4.818q-0.264-0.462-0.858-0.462q-2.013,0-5.346,3.1185t-3.333,5.1645z"/><path fill="#" d=""/></svg>
